# xmcd CD database file
#
# Track frame offsets:
#	150
#	11932
#	26847
#	41677
#	52362
#	68697
#	81652
#	94957
#	109445
#	120897
#	131092
#
# Disc length: 1963 seconds
#
# Revision: 1
# Processed by: cddbd v1.5PL3 Copyright (c) Steve Scherf et al.
# Submitted via: CDex 1.50beta10
#
DISCID=a407a90b
DTITLE=Snooks Eaglin - Baby, You Can Get Your Gun
DYEAR=1987
DGENRE=Blues
TTITLE0=You Give Me Nothing But The Blues
TTITLE1=Baby Please
TTITLE2=Oh Sweetness
TTITLE3=Profidia
TTITLE4=Lavinia
TTITLE5=Baby, You Can Get Your Gun!
TTITLE6=Drop The Bomb!
TTITLE7=That Certain Door
TTITLE8=Mary Joe
TTITLE9=Nobody Knows
TTITLE10=Pretty Girls Everywhere
EXTD=YEAR: 1987
EXTT0=
EXTT1=
EXTT2=
EXTT3=
EXTT4=
EXTT5=
EXTT6=
EXTT7=
EXTT8=
EXTT9=
EXTT10=
PLAYORDER=
